<?xml version="1.0" encoding="utf-8"?>
<!-- Generated by IcoMoon.io -->
<!DOCTYPE svg PUBLIC "-//W3C//DTD SVG 1.1//EN" "http://www.w3.org/Graphics/SVG/1.1/DTD/svg11.dtd">
<svg version="1.1" xmlns="http://www.w3.org/2000/svg" xmlns:xlink="http://www.w3.org/1999/xlink" width="16" height="16" viewBox="0 0 16 16">
<path fill="#000" d="M15 15l-4-1.258-3 1.258-3-1.201-4 1.135 2-5.934h2v1h-1.242l-1.041 3.402 2.283-0.638 3 1.206 3-1.269 2.258 0.719-1-3.42h-1.258v-1h2l2 6zM4.348 6.758c-0.231-0.524-0.348-1.086-0.348-1.668 0-2.256 1.794-4.090 4-4.090s4 1.834 4 4.090c0 0.592-0.121 1.164-0.359 1.699-0.568 1.268-3.125 4.85-3.233 5.002l-0.406 0.568-0.407-0.567c-0.111-0.153-2.687-3.749-3.247-5.034zM5 5.090c0 0.443 0.089 0.87 0.264 1.267 0.393 0.901 1.979 3.199 2.735 4.277 0.754-1.076 2.329-3.363 2.729-4.253 0.18-0.406 0.272-0.84 0.272-1.291 0-1.704-1.346-3.090-3-3.090s-3 1.386-3 3.090zM6 5c0-1.103 0.897-2 2-2s2 0.897 2 2-0.897 2-2 2c-1.103 0-2-0.897-2-2zM7 5c0 0.553 0.448 1 1 1s1-0.447 1-1-0.448-1-1-1c-0.552 0-1 0.447-1 1z"></path>
</svg>
