<?xml version="1.0" encoding="utf-8"?>
<!-- Generated by IcoMoon.io -->
<!DOCTYPE svg PUBLIC "-//W3C//DTD SVG 1.1//EN" "http://www.w3.org/Graphics/SVG/1.1/DTD/svg11.dtd">
<svg version="1.1" xmlns="http://www.w3.org/2000/svg" xmlns:xlink="http://www.w3.org/1999/xlink" width="16" height="16" viewBox="0 0 16 16">
<path fill="#000" d="M6.5 10.030c-0.081 0-0.162-0.020-0.236-0.059-0.162-0.087-0.264-0.257-0.264-0.441v-4c0-0.185 0.102-0.354 0.264-0.441 0.163-0.086 0.359-0.078 0.514 0.025l3 2c0.138 0.093 0.222 0.249 0.222 0.416s-0.084 0.324-0.223 0.416l-3 2c-0.084 0.055-0.18 0.084-0.277 0.084zM7 6.464v2.131l1.599-1.065-1.599-1.066zM15 2v11h-14v-11h14zM16 1h-16v13h16v-13zM15.008 2.957h-14v1h14v-1zM15.008 10.957h-14v1h14v-1zM4 1.929h-1v2h1v-2zM7 1.929h-1v2h1v-2zM10 1.929h-1v2h1v-2zM13 1.929h-1v2h1v-2zM4 11.055h-1v2.874h1v-2.874zM7 11.055h-1v2.874h1v-2.874zM10 11.055h-1v2.874h1v-2.874zM13 11.041h-1v2.889h1v-2.889z"></path>
</svg>
