<?xml version="1.0" encoding="utf-8"?>
<!-- Generated by IcoMoon.io -->
<!DOCTYPE svg PUBLIC "-//W3C//DTD SVG 1.1//EN" "http://www.w3.org/Graphics/SVG/1.1/DTD/svg11.dtd">
<svg version="1.1" xmlns="http://www.w3.org/2000/svg" xmlns:xlink="http://www.w3.org/1999/xlink" width="16" height="16" viewBox="0 0 16 16">
<path fill="#000" d="M7.399 3c-2.977 0-5.399 2.422-5.399 5.399v5.601h11v-5.399c0-3.088-2.513-5.601-5.601-5.601zM12 13h-6v-5h-1v5h-2v-4.601c0-2.426 1.974-4.399 4.399-4.399 2.538 0 4.601 2.064 4.601 4.601v4.399zM15 15v1h-15v-1h15zM8 2h-1v-2h1v2zM2.817 3.813l-1.207-1.5 0.78-0.626 1.207 1.5-0.78 0.626zM12.088 3.826l-0.758-0.652 1.291-1.5 0.758 0.652-1.291 1.5z"></path>
</svg>
