<?xml version="1.0" encoding="utf-8"?>
<!-- Generated by IcoMoon.io -->
<!DOCTYPE svg PUBLIC "-//W3C//DTD SVG 1.1//EN" "http://www.w3.org/Graphics/SVG/1.1/DTD/svg11.dtd">
<svg version="1.1" xmlns="http://www.w3.org/2000/svg" xmlns:xlink="http://www.w3.org/1999/xlink" width="16" height="16" viewBox="0 0 16 16">
<path fill="#000" d="M11.5 8c1.93 0 3.5 1.57 3.5 3.5s-1.57 3.5-3.5 3.5-3.5-1.57-3.5-3.5 1.57-3.5 3.5-3.5zM11.5 7c-2.485 0-4.5 2.015-4.5 4.5s2.015 4.5 4.5 4.5 4.5-2.015 4.5-4.5-2.015-4.5-4.5-4.5v0zM13.944 10.841l-0.701-0.714-2.227 2.186-1.181-1.169-0.703 0.711 1.882 1.862 2.93-2.876zM11.379 6.006c0.032-0.001 0.063-0.005 0.096-0.005-0.008 0-0.017-0.001-0.025-0.001-0.024 0-0.047 0.006-0.071 0.006zM11.45 6c0.009 0 0.017 0.001 0.025 0.001s0.016-0.001 0.025-0.001c0.068 0 0.134 0.008 0.202 0.010 0.171-0.472 0.273-0.977 0.273-1.51 0-2.484-2.012-4.5-4.501-4.5-2.484 0-4.499 2.016-4.499 4.5 0 1.648 0.897 3.075 2.22 3.859-2.871 0.918-4.988 3.516-5.195 6.641h1c0.232-3.031 2.551-5.482 5.519-5.922 0.195-0.396 0.433-0.767 0.713-1.102-1.815-0.127-3.257-1.629-3.257-3.476 0-1.93 1.57-3.5 3.499-3.5s3.501 1.57 3.501 3.5c0 0.569-0.15 1.099-0.392 1.575 0.038-0.006 0.078-0.005 0.115-0.010 0.223-0.033 0.45-0.054 0.681-0.059 0.024 0 0.047-0.006 0.071-0.006zM11.475 6.001c0.076 0.001 0.151 0.008 0.226 0.011 0-0.001 0-0.002 0.001-0.002-0.068-0.002-0.134-0.010-0.202-0.010-0.009 0-0.017 0.001-0.025 0.001zM11.379 6.006c-0.231 0.004-0.457 0.027-0.681 0.059 0.224-0.033 0.45-0.054 0.681-0.059z"></path>
</svg>
