<?xml version="1.0" encoding="utf-8"?>
<!-- Generated by IcoMoon.io -->
<!DOCTYPE svg PUBLIC "-//W3C//DTD SVG 1.1//EN" "http://www.w3.org/Graphics/SVG/1.1/DTD/svg11.dtd">
<svg version="1.1" xmlns="http://www.w3.org/2000/svg" xmlns:xlink="http://www.w3.org/1999/xlink" width="16" height="16" viewBox="0 0 16 16">
<path fill="#000" d="M11.5 7c-2.485 0-4.5 2.015-4.5 4.5s2.015 4.5 4.5 4.5 4.5-2.015 4.5-4.5-2.015-4.5-4.5-4.5zM11.5 15c-1.93 0-3.5-1.57-3.5-3.5s1.57-3.5 3.5-3.5 3.5 1.57 3.5 3.5-1.57 3.5-3.5 3.5zM14 11v1h-5v-1h5zM7.233 7.976c-0.281 0.335-0.518 0.706-0.713 1.102-2.969 0.44-5.287 2.891-5.52 5.922h-1c0.207-3.125 2.324-5.723 5.195-6.641-1.323-0.784-2.22-2.21-2.22-3.859 0-2.484 2.015-4.5 4.499-4.5 2.489 0 4.501 2.016 4.501 4.5 0 0.533-0.102 1.040-0.274 1.512-0.084-0.003-0.167-0.012-0.251-0.012-0.296 0-0.583 0.030-0.867 0.075 0.242-0.475 0.392-1.005 0.392-1.575 0-1.93-1.57-3.5-3.501-3.5s-3.499 1.57-3.499 3.5c0 1.847 1.442 3.349 3.258 3.476z"></path>
</svg>
