<?xml version="1.0" encoding="utf-8"?>
<!-- Generated by IcoMoon.io -->
<!DOCTYPE svg PUBLIC "-//W3C//DTD SVG 1.1//EN" "http://www.w3.org/Graphics/SVG/1.1/DTD/svg11.dtd">
<svg version="1.1" xmlns="http://www.w3.org/2000/svg" xmlns:xlink="http://www.w3.org/1999/xlink" width="16" height="16" viewBox="0 0 16 16">
<path fill="#000" d="M4.084 10.633c-0.312 0.323-0.312 0.851 0 1.174 0.144 0.15 0.333 0.233 0.534 0.233h0.002c0.202 0 0.394-0.083 0.539-0.234l7.325-7.613c0.698-0.726 0.69-1.914-0.018-2.648-0.338-0.352-0.786-0.545-1.263-0.545-0.467 0-0.903 0.187-1.23 0.527l-7.091 7.371c-1.128 1.173-1.18 3.179-0.109 4.291 0.517 0.537 1.171 0.811 1.882 0.811 0.805 0 1.598-0.344 2.174-0.944l5.445-5.661 0.721 0.693-5.446 5.662c-0.763 0.794-1.818 1.25-2.894 1.25-0.985 0-1.896-0.383-2.564-1.078-1.489-1.547-1.439-4.147 0.070-5.718l7.090-7.371c0.517-0.537 1.21-0.833 1.952-0.833 0 0 0 0 0.001 0 0.751 0 1.455 0.303 1.982 0.852 1.075 1.116 1.083 2.927 0.018 4.035l-5.594 5.814-0.007-0.007-1.724 1.786c-0.336 0.349-0.783 0.52-1.259 0.52-0.001 0-0.002 0-0.003 0-0.475 0-0.92-0.172-1.254-0.52-0.679-0.706-0.679-1.845 0.001-2.55l5.68-5.9 0.721 0.696-5.681 5.907z"></path>
</svg>
