<?xml version="1.0" encoding="utf-8"?>
<!-- Generated by IcoMoon.io -->
<!DOCTYPE svg PUBLIC "-//W3C//DTD SVG 1.1//EN" "http://www.w3.org/Graphics/SVG/1.1/DTD/svg11.dtd">
<svg version="1.1" xmlns="http://www.w3.org/2000/svg" xmlns:xlink="http://www.w3.org/1999/xlink" width="16" height="16" viewBox="0 0 16 16">
<path fill="#000" d="M5.5 0c-1.381 0-2.5 1.119-2.5 2.5v6c0 1.381 1.119 2.5 2.5 2.5s2.5-1.119 2.5-2.5v-6c0-1.381-1.119-2.5-2.5-2.5zM7 8.5c0 0.827-0.673 1.5-1.5 1.5s-1.5-0.673-1.5-1.5v-6c0-0.827 0.673-1.5 1.5-1.5s1.5 0.673 1.5 1.5v6zM5.5 12.031c0.98 0 1.864-0.407 2.5-1.058v1.265c-0.637 0.426-1.381 0.706-2.191 0.762h0.191v2h2v1h-5v-1h2v-2h0.191c-2.335-0.162-4.191-2.093-4.191-4.469v-1.531h1v1.531c0 1.93 1.57 3.5 3.5 3.5zM9 7v9h7v-9h-7zM15 15h-5v-7h5v7zM14 10h-3v-1h3v1zM14 12h-3v-1h3v1zM13 14h-2v-1h2v1z"></path>
</svg>
