<?xml version="1.0" encoding="utf-8"?>
<!-- Generated by IcoMoon.io -->
<!DOCTYPE svg PUBLIC "-//W3C//DTD SVG 1.1//EN" "http://www.w3.org/Graphics/SVG/1.1/DTD/svg11.dtd">
<svg version="1.1" xmlns="http://www.w3.org/2000/svg" xmlns:xlink="http://www.w3.org/1999/xlink" width="16" height="16" viewBox="0 0 16 16">
<path fill="#000" d="M7.38 12.788l0.616 0.482 0.616-0.482c0.5-0.391 4.883-3.926 4.883-7.57 0-2.877-2.466-5.218-5.499-5.218s-5.501 2.341-5.501 5.218c0 3.644 4.385 7.179 4.885 7.57zM7.996 1c2.486 0 4.499 1.888 4.499 4.218 0 3.261-4.499 6.782-4.499 6.782s-4.501-3.521-4.501-6.782c0-2.33 2.016-4.218 4.501-4.218zM7.995 8c1.103 0 2.001-0.897 2.001-2.001-0.001-1.102-0.898-1.999-2.001-1.999s-2 0.897-2 1.999c0 1.104 0.897 2.001 2 2.001zM7.995 5c0.553 0 1.001 0.448 1.001 0.999-0.001 0.553-0.448 1.001-1.001 1.001-0.551 0-1-0.448-1-1.001 0-0.551 0.449-0.999 1-0.999zM16 16h-16l2-4h3.245c0.436 0.419 0.826 0.757 1.123 1h-3.75l-1 2h12.764l-1-2h-3.759c0.296-0.243 0.687-0.581 1.123-1h3.254l2 4z"></path>
</svg>
